# xmcd CD database file
#
# Track frame offsets:
#	150
#	21751
#	44913
#	77225
#	95065
#	128411
#	157480
#	174011
#
# Disc length: 2625 seconds
#
# Revision: 0
# Processed by: cddbd v1.4PL0 Copyright (c) Steve Scherf et al.
# Submitted via: CDex 1.50
#
DISCID=650a3f08
DTITLE=The Part Time Lovers - Down For The Ride
DYEAR=2001
DGENRE=Jazz
TTITLE0=mid-stream
TTITLE1=just enough, too much
TTITLE2=early
TTITLE3=good mood
TTITLE4=s.o.s.
TTITLE5=but, I'm alright now
TTITLE6=rockin' tonight
TTITLE7=come on, come over
EXTD=YEAR: 2001
EXTT0=
EXTT1=
EXTT2=
EXTT3=
EXTT4=
EXTT5=
EXTT6=
EXTT7=
PLAYORDER=
